PathFileType	4	(X/Y/Z)	Patient4_TMGait_0pt6_01_left_34.trc.trc
DataRate	CameraRate	NumFrames	NumMarkers	Units	OrigDataRate	OrigDataStartFrame	OrigNumFrames
85.889570552147	85.889570552147	5	33	mm	85.889570552147	106	       141
Frame#	Time	Sacral			L.Shoulder			Chest			R.Shoulder			Neck			R.ASIS			L.ASIS			R.Thigh.Superior			R.Thigh.Lateral			R.Thigh.Inferior			R.Patella			L.Thigh.Superior			L.Thigh.Lateral			L.Thigh.Inferior			L.Patella			L.Shank.Superior			L.Shank.Lateral			L.Shank.Inferior			R.Shank.Superior			R.Shank.Lateral			R.Shank.Inferior			R.Heel			R.Midfoot.Superior			R.Midfoot.Lateral			R.Toe			L.Heel			L.Midfoot.Lateral			L.Midfoot.Superior			L.Toe			L.Elbow			L.Wrist			R.Elbow			R.Wrist			
		X1	Y1	Z1	X2	Y2	Z2	X3	Y3	Z3	X4	Y4	Z4	X5	Y5	Z5	X6	Y6	Z6	X7	Y7	Z7	X8	Y8	Z8	X9	Y9	Z9	X10	Y10	Z10	X11	Y11	Z11	X12	Y12	Z12	X13	Y13	Z13	X14	Y14	Z14	X15	Y15	Z15	X16	Y16	Z16	X17	Y17	Z17	X18	Y18	Z18	X19	Y19	Z19	X20	Y20	Z20	X21	Y21	Z21	X22	Y22	Z22	X23	Y23	Z23	X24	Y24	Z24	X25	Y25	Z25	X26	Y26	Z26	X27	Y27	Z27	X28	Y28	Z28	X29	Y29	Z29	X30	Y30	Z30	X31	Y31	Z31	X32	Y32	Z32	X33	Y33	Z33	

106	42.612500000000	766.374958266929	1005.939842082525	511.598242411395	907.211866295844	1444.077499372209	333.671078840362	1031.528221526366	1371.837345797072	477.239830512328	969.500810439970	1433.831154113362	663.200540311680	908.171298044490	1497.385161690197	490.794188838553	1001.456918399406	944.094782418578	607.867976948526	965.561417281010	970.823455727449	336.914284978566	1027.170618509623	738.421627855511	574.276149043597	942.474486756278	632.729655116449	638.185402553698	1011.160861640273	577.513815199619	554.924370810790	1004.743065117560	488.906291686951	560.700290364056	1056.004289441202	787.927176683429	360.124868191773	1010.762547114485	659.811480104288	284.036268484479	1115.786136737866	599.721361336703	340.144401732538	1137.075687295039	519.918057156677	331.282718593148	1094.543648814068	444.994001804514	323.793461553320	980.547112771519	351.726372297811	277.055804655294	1023.450536229394	227.354025237274	329.138791342958	972.670586732335	400.977070757603	566.532172461334	895.245893824602	299.624018173475	624.085548371164	934.710529367853	204.171322015992	560.471936595749	795.200892515692	42.347661549197	522.461409760506	964.773408804150	96.330447657257	565.314820674212	875.351335255147	36.696774787400	601.387189440085	1083.566569580729	44.581453771228	599.331281884262	879.758331136362	85.310420896059	370.944542935993	944.762030774359	76.080355240909	284.469943426371	1037.310261109920	127.204219010271	303.252484164138	1153.029397615565	62.828158574381	261.285714635545	872.389084235228	1088.027893663836	220.720449878870	968.493763091204	845.067840091858	220.220435192358	1039.247534686711	1089.954509682549	779.019885344099	1244.242382730302	929.759931092151	759.289658888739	
107	42.624142857143	765.575204366812	1005.998948431606	512.590209379182	906.612094825394	1443.347986641835	333.362802076610	1031.613072002653	1371.195912463522	476.355157079137	970.899812609594	1433.781179643810	662.554953941004	908.566334585842	1497.060758164274	490.250270122210	1000.989436175528	943.518942647748	607.666713982962	963.898048640596	970.670744731254	336.858315594688	1024.860153436155	737.507304146522	573.178629146340	939.869618671549	632.357593901120	638.040574449823	1006.952339018142	576.686061968296	554.086913024850	999.816534027409	488.256758227296	559.843386462182	1054.562938402176	788.035021729670	361.268403911205	1010.256144779811	660.308063489700	284.144279720263	1114.105856757491	600.040864806139	342.199688562759	1136.955083822318	522.364698258996	332.857158105918	1098.263636279982	447.304120747321	324.148712375359	990.863941600833	347.638651404685	275.491115511062	1040.898237856607	225.649965104738	327.493486853307	967.517937727347	400.406787828676	565.863004416994	890.089355872373	299.342072306301	623.971296758078	928.559164633575	203.778982276762	559.956292962113	788.249582246099	42.355710892508	522.474374657194	957.796446408524	96.238975083321	565.198412973860	868.349221264940	36.702718518683	601.361814432051	1076.583707934217	44.312621754254	599.333959051805	905.900242581733	75.062006654062	367.068920966832	972.573239056801	69.807102181527	281.492592976705	1061.688841761303	126.148662685174	301.541608055704	1181.509412183767	68.455584679124	261.207252678049	866.874988329741	1087.110213477644	222.710528636311	948.055247119533	839.124596990818	221.831805251469	1047.929991378845	1092.341662077121	779.222670117989	1262.179802068091	945.643093999351	756.148045808684	
108	42.635785714286	764.845951068260	1006.034876108859	513.468366957309	906.223756618763	1442.577930261501	332.894761233805	1031.806164513263	1370.468237449449	475.378058388431	972.312886731420	1433.650991824660	661.765951044192	909.068160172512	1496.674811268739	489.568452359648	1000.554248403073	942.908836497660	607.439752900497	962.372754612371	970.356595073558	336.733115437492	1022.669979563441	736.552232019717	572.325098172219	937.238243070145	631.957196488455	637.932715356156	1002.835758074120	575.826042791651	553.396763035911	994.930811456544	487.592608111684	559.102478016606	1052.781785784319	787.655695756091	362.213828921823	1009.070695884092	660.483244747502	284.004588533842	1111.827206984050	599.919315020323	343.935066028517	1136.166474343976	524.479511228495	334.209633266287	1101.325202382380	449.544318790510	324.444198976372	1000.879856789619	343.882465085432	274.013496433395	1057.795980847345	224.744043265111	326.202487534558	962.367718436237	399.838069511021	565.292586222179	884.872283326261	299.072770559517	623.891867381658	922.377227882036	203.400481699604	559.519924346259	781.286780178474	42.355553736045	522.512506213925	950.819139269816	96.174348383020	565.124983112514	861.339685181093	36.698150144207	601.350244422802	1069.592472247523	44.086595147962	599.329877574517	931.845111686242	66.295430061040	363.752892275490	1000.120582305576	64.841315145218	279.210296359048	1085.507992764614	126.161148043048	300.433665206465	1209.037078246706	75.189421418996	262.123621696283	861.361937890968	1086.302345222950	224.505908154542	927.984403758386	834.411414094858	223.448968440534	1056.178015527051	1094.724257487592	779.101410047720	1278.844216509857	962.347364691911	752.545415280342	
109	42.647428571429	764.205318805157	1006.066529148272	514.239628032102	906.040248061398	1441.793638307888	332.274690190932	1032.105586511854	1369.684252771791	474.314998511304	973.736879009879	1433.474304159270	660.838862307120	909.667959680383	1496.248282733851	488.757608777406	1000.171686360732	942.277006599438	607.175852273439	960.968002013039	969.904450516916	336.536764795426	1020.595036455966	735.555351310971	571.722512918305	934.545772678568	631.541080282003	637.849759290932	998.788960535895	574.937420536275	552.852237822915	990.058098298761	486.924161595095	558.470482425954	1050.689217814830	786.868453459124	362.914722701685	1007.302661362389	660.375877880094	283.618346801890	1109.116604769308	599.464383311371	345.262295352254	1134.845166876369	526.307894896011	335.301916820814	1103.801284862489	451.718127196635	324.674095333316	1010.489275378024	340.537660668007	272.678247412216	1073.916417372218	224.646693682012	325.294987325043	957.194184302549	399.280100415101	564.813660292925	879.570667821994	298.828306674953	623.837554247113	916.154273120473	203.043207580627	559.161961641708	774.307175229684	42.349074600420	522.572817792883	943.835877964174	96.130268092606	565.086179375727	854.320913230695	36.685242230306	601.353807223332	1062.592503904264	43.904953370753	599.322250030924	957.132921668410	59.143681886316	361.082225326409	1026.947523024489	61.196138509124	277.688794302018	1108.407983783401	127.197245192788	299.947734217842	1235.226881538648	82.845834612641	264.031837655809	855.837766120446	1085.658177932206	226.066366253049	908.497957479649	830.896383995250	225.073338597751	1064.001188001993	1097.091097083341	778.630455098599	1294.132784092268	979.758267943804	748.506007725002	
110	42.659071428571	763.670220881596	1006.108119355318	514.908384759669	906.043603453243	1441.017814138203	331.514721998332	1032.505155425994	1368.873029019546	473.171392788721	975.171193941675	1433.283433435722	659.781048306520	910.353278852761	1495.799757956585	487.826102171957	999.861375544558	941.631714629659	606.857478415242	959.669001214185	969.345057448977	336.261006302285	1018.618336247853	734.515585155050	571.343366652614	931.767397905129	631.120311033764	637.772403203851	994.785800069074	574.025341046947	552.432379406427	985.175734477754	486.259611129291	557.928339210043	1048.339791917181	785.775213644086	363.336588492591	1005.081423388572	660.027857842352	283.021150143669	1106.161106986966	598.786253342848	346.130098272976	1133.141900571542	527.888456789634	336.118139604776	1105.769360114590	453.810985070293	324.837403661163	1019.549043151348	337.648958294767	271.562734668500	1089.026785480659	225.297820140189	324.774808117409	951.977864725183	398.739965829457	564.409808457452	874.170497885217	298.618599849551	623.796852240694	909.883574186492	202.712792608308	558.874875501910	767.308472665585	42.338836519778	522.651896566606	936.842023475819	96.099818918284	565.070901994633	847.292128628359	36.667112386935	601.372647796546	1055.584076030422	43.765608013659	599.313897178215	981.289337643156	53.630999195100	359.142587416370	1052.546931928124	58.797715056705	276.953773951699	1130.008188610305	129.130229095126	300.043993042854	1259.673484507055	91.149936798573	266.777307231841	850.299369362369	1085.223046506200	227.360826262054	889.794942228958	828.507195641970	226.701586581153	1071.412935342759	1099.435620632162	777.795472813015	1307.964119964399	997.742208039832	744.064316811387	
